<svg xmlns="http://www.w3.org/2000/svg" xmlns:xlink="http://www.w3.org/1999/xlink" width="500" zoomAndPan="magnify" viewBox="0 0 375 374.999991" height="500" preserveAspectRatio="xMidYMid meet" version="1.0"><defs><g/><clipPath id="5b87d4145a"><path d="M 129.84375 134 L 209 134 L 209 210 L 129.84375 210 Z M 129.84375 134 " clip-rule="nonzero"/></clipPath><clipPath id="257b3f1ce6"><path d="M 165 94.527344 L 245.34375 94.527344 L 245.34375 160 L 165 160 Z M 165 94.527344 " clip-rule="nonzero"/></clipPath></defs><g fill="#ffffff" fill-opacity="1"><g transform="translate(97.449977, 254.069983)"><g><path d="M 21.9375 -13.171875 C 23.375 -12.660156 24.5 -11.867188 25.3125 -10.796875 C 26.132812 -9.734375 26.546875 -8.441406 26.546875 -6.921875 C 26.546875 -4.710938 25.65625 -3.003906 23.875 -1.796875 C 22.101562 -0.597656 19.53125 0 16.15625 0 L 2.53125 0 L 2.53125 -25.25 L 15.4375 -25.25 C 18.664062 -25.25 21.117188 -24.65625 22.796875 -23.46875 C 24.484375 -22.28125 25.328125 -20.675781 25.328125 -18.65625 C 25.328125 -17.445312 25.03125 -16.367188 24.4375 -15.421875 C 23.851562 -14.472656 23.019531 -13.722656 21.9375 -13.171875 Z M 9.59375 -20.09375 L 9.59375 -15.21875 L 14.5 -15.21875 C 16.90625 -15.21875 18.109375 -16.035156 18.109375 -17.671875 C 18.109375 -19.285156 16.90625 -20.09375 14.5 -20.09375 Z M 15.578125 -5.15625 C 18.085938 -5.15625 19.34375 -6.007812 19.34375 -7.71875 C 19.34375 -9.425781 18.085938 -10.28125 15.578125 -10.28125 L 9.59375 -10.28125 L 9.59375 -5.15625 Z M 15.578125 -5.15625 "/></g></g></g><g fill="#ffffff" fill-opacity="1"><g transform="translate(125.197011, 254.069983)"><g><path d="M 19.453125 -4.90625 L 8.765625 -4.90625 L 6.78125 0 L -0.5 0 L 10.640625 -25.25 L 17.671875 -25.25 L 28.859375 0 L 21.4375 0 Z M 17.359375 -10.171875 L 14.109375 -18.25 L 10.859375 -10.171875 Z M 13.390625 -29.046875 C 14.035156 -29.359375 14.488281 -29.679688 14.75 -30.015625 C 15.019531 -30.347656 15.15625 -30.722656 15.15625 -31.140625 C 15.15625 -31.597656 15.003906 -31.953125 14.703125 -32.203125 C 14.398438 -32.453125 14.007812 -32.578125 13.53125 -32.578125 C 12.832031 -32.578125 12.132812 -32.335938 11.4375 -31.859375 L 10.03125 -34.53125 C 10.582031 -34.957031 11.226562 -35.285156 11.96875 -35.515625 C 12.71875 -35.742188 13.488281 -35.859375 14.28125 -35.859375 C 15.675781 -35.859375 16.8125 -35.472656 17.6875 -34.703125 C 18.570312 -33.929688 19.015625 -32.9375 19.015625 -31.71875 C 19.015625 -29.59375 17.832031 -28.003906 15.46875 -26.953125 Z M 13.390625 -29.046875 "/></g></g></g><g fill="#ffffff" fill-opacity="1"><g transform="translate(153.557437, 254.069983)"><g><path d="M 15.265625 0.5 C 12.585938 0.5 10.1875 -0.0625 8.0625 -1.1875 C 5.9375 -2.320312 4.265625 -3.882812 3.046875 -5.875 C 1.835938 -7.875 1.234375 -10.125 1.234375 -12.625 C 1.234375 -15.125 1.835938 -17.375 3.046875 -19.375 C 4.265625 -21.375 5.9375 -22.9375 8.0625 -24.0625 C 10.1875 -25.195312 12.585938 -25.765625 15.265625 -25.765625 C 17.929688 -25.765625 20.328125 -25.195312 22.453125 -24.0625 C 24.585938 -22.9375 26.257812 -21.375 27.46875 -19.375 C 28.6875 -17.375 29.296875 -15.125 29.296875 -12.625 C 29.296875 -10.125 28.6875 -7.875 27.46875 -5.875 C 26.257812 -3.882812 24.585938 -2.320312 22.453125 -1.1875 C 20.328125 -0.0625 17.929688 0.5 15.265625 0.5 Z M 15.265625 -5.40625 C 16.535156 -5.40625 17.6875 -5.707031 18.71875 -6.3125 C 19.757812 -6.914062 20.578125 -7.765625 21.171875 -8.859375 C 21.773438 -9.953125 22.078125 -11.207031 22.078125 -12.625 C 22.078125 -14.039062 21.773438 -15.296875 21.171875 -16.390625 C 20.578125 -17.492188 19.757812 -18.34375 18.71875 -18.9375 C 17.6875 -19.539062 16.535156 -19.84375 15.265625 -19.84375 C 13.984375 -19.84375 12.828125 -19.539062 11.796875 -18.9375 C 10.765625 -18.34375 9.945312 -17.492188 9.34375 -16.390625 C 8.738281 -15.296875 8.4375 -14.039062 8.4375 -12.625 C 8.4375 -11.207031 8.738281 -9.953125 9.34375 -8.859375 C 9.945312 -7.765625 10.765625 -6.914062 11.796875 -6.3125 C 12.828125 -5.707031 13.984375 -5.40625 15.265625 -5.40625 Z M 15.265625 -5.40625 "/></g></g></g><g fill="#ffffff" fill-opacity="1"><g transform="translate(184.082776, 254.069983)"><g/></g></g><g fill="#ffffff" fill-opacity="1"><g transform="translate(194.582627, 254.069983)"><g><path d="M 11.40625 0.5 C 9.351562 0.5 7.363281 0.25 5.4375 -0.25 C 3.519531 -0.757812 1.957031 -1.429688 0.75 -2.265625 L 3.109375 -7.546875 C 4.234375 -6.796875 5.539062 -6.191406 7.03125 -5.734375 C 8.519531 -5.273438 9.988281 -5.046875 11.4375 -5.046875 C 14.175781 -5.046875 15.546875 -5.734375 15.546875 -7.109375 C 15.546875 -7.828125 15.15625 -8.359375 14.375 -8.703125 C 13.59375 -9.054688 12.335938 -9.425781 10.609375 -9.8125 C 8.703125 -10.21875 7.113281 -10.65625 5.84375 -11.125 C 4.570312 -11.59375 3.476562 -12.34375 2.5625 -13.375 C 1.644531 -14.414062 1.1875 -15.8125 1.1875 -17.5625 C 1.1875 -19.101562 1.609375 -20.492188 2.453125 -21.734375 C 3.296875 -22.972656 4.550781 -23.953125 6.21875 -24.671875 C 7.894531 -25.398438 9.945312 -25.765625 12.375 -25.765625 C 14.03125 -25.765625 15.664062 -25.578125 17.28125 -25.203125 C 18.894531 -24.828125 20.3125 -24.28125 21.53125 -23.5625 L 19.34375 -18.25 C 16.9375 -19.550781 14.601562 -20.203125 12.34375 -20.203125 C 10.914062 -20.203125 9.878906 -19.988281 9.234375 -19.5625 C 8.585938 -19.144531 8.265625 -18.601562 8.265625 -17.9375 C 8.265625 -17.257812 8.648438 -16.75 9.421875 -16.40625 C 10.191406 -16.070312 11.425781 -15.726562 13.125 -15.375 C 15.050781 -14.957031 16.644531 -14.515625 17.90625 -14.046875 C 19.175781 -13.578125 20.269531 -12.832031 21.1875 -11.8125 C 22.113281 -10.789062 22.578125 -9.40625 22.578125 -7.65625 C 22.578125 -6.132812 22.15625 -4.757812 21.3125 -3.53125 C 20.476562 -2.3125 19.21875 -1.332031 17.53125 -0.59375 C 15.851562 0.132812 13.8125 0.5 11.40625 0.5 Z M 11.40625 0.5 "/></g></g></g><g fill="#ffffff" fill-opacity="1"><g transform="translate(217.927657, 254.069983)"><g><path d="M 25.359375 -21.828125 C 26.585938 -20.691406 27.550781 -19.335938 28.25 -17.765625 C 28.945312 -16.191406 29.296875 -14.476562 29.296875 -12.625 C 29.296875 -10.125 28.6875 -7.875 27.46875 -5.875 C 26.257812 -3.882812 24.585938 -2.320312 22.453125 -1.1875 C 20.328125 -0.0625 17.929688 0.5 15.265625 0.5 C 12.585938 0.5 10.1875 -0.0625 8.0625 -1.1875 C 5.9375 -2.320312 4.265625 -3.882812 3.046875 -5.875 C 1.835938 -7.875 1.234375 -10.125 1.234375 -12.625 C 1.234375 -15.125 1.84375 -17.375 3.0625 -19.375 C 4.289062 -21.375 5.992188 -22.9375 8.171875 -24.0625 C 10.347656 -25.195312 12.804688 -25.765625 15.546875 -25.765625 C 16.679688 -25.765625 18.015625 -25.664062 19.546875 -25.46875 C 20.585938 -25.351562 21.40625 -25.296875 22 -25.296875 C 22.84375 -25.296875 23.503906 -25.488281 23.984375 -25.875 C 24.472656 -26.257812 24.71875 -26.8125 24.71875 -27.53125 C 24.71875 -28.269531 24.472656 -28.96875 23.984375 -29.625 L 27.921875 -31.03125 C 28.765625 -29.894531 29.1875 -28.628906 29.1875 -27.234375 C 29.1875 -25.890625 28.847656 -24.757812 28.171875 -23.84375 C 27.503906 -22.9375 26.566406 -22.265625 25.359375 -21.828125 Z M 15.265625 -5.40625 C 16.535156 -5.40625 17.6875 -5.707031 18.71875 -6.3125 C 19.757812 -6.914062 20.578125 -7.765625 21.171875 -8.859375 C 21.773438 -9.953125 22.078125 -11.207031 22.078125 -12.625 C 22.078125 -14.039062 21.773438 -15.296875 21.171875 -16.390625 C 20.578125 -17.492188 19.757812 -18.34375 18.71875 -18.9375 C 17.6875 -19.539062 16.535156 -19.84375 15.265625 -19.84375 C 13.984375 -19.84375 12.828125 -19.539062 11.796875 -18.9375 C 10.765625 -18.34375 9.945312 -17.492188 9.34375 -16.390625 C 8.738281 -15.296875 8.4375 -14.039062 8.4375 -12.625 C 8.4375 -11.207031 8.738281 -9.953125 9.34375 -8.859375 C 9.945312 -7.765625 10.765625 -6.914062 11.796875 -6.3125 C 12.828125 -5.707031 13.984375 -5.40625 15.265625 -5.40625 Z M 15.265625 -5.40625 "/></g></g></g><g fill="#ffffff" fill-opacity="1"><g transform="translate(248.452996, 254.069983)"><g><path d="M 26.546875 -25.25 L 26.546875 0 L 20.671875 0 L 9.53125 -13.453125 L 9.53125 0 L 2.53125 0 L 2.53125 -25.25 L 8.40625 -25.25 L 19.546875 -11.796875 L 19.546875 -25.25 Z M 26.546875 -25.25 "/></g></g></g><g fill="#ffffff" fill-opacity="1"><g transform="translate(99.850237, 276.422677)"><g><path d="M 4.53125 -8.390625 C 5.613281 -8.390625 6.46875 -8.128906 7.09375 -7.609375 C 7.71875 -7.085938 8.03125 -6.375 8.03125 -5.46875 C 8.03125 -4.550781 7.71875 -3.832031 7.09375 -3.3125 C 6.46875 -2.800781 5.613281 -2.546875 4.53125 -2.546875 L 2.453125 -2.546875 L 2.453125 0 L 1.265625 0 L 1.265625 -8.390625 Z M 4.5 -3.578125 C 5.25 -3.578125 5.820312 -3.738281 6.21875 -4.0625 C 6.625 -4.382812 6.828125 -4.851562 6.828125 -5.46875 C 6.828125 -6.070312 6.625 -6.535156 6.21875 -6.859375 C 5.820312 -7.179688 5.25 -7.34375 4.5 -7.34375 L 2.453125 -7.34375 L 2.453125 -3.578125 Z M 4.5 -3.578125 "/></g></g></g><g fill="#ffffff" fill-opacity="1"><g transform="translate(112.093543, 276.422677)"><g><path d="M 8.46875 -8.390625 L 8.46875 0 L 7.28125 0 L 7.28125 -3.734375 L 2.453125 -3.734375 L 2.453125 0 L 1.265625 0 L 1.265625 -8.390625 L 2.453125 -8.390625 L 2.453125 -4.78125 L 7.28125 -4.78125 L 7.28125 -8.390625 Z M 8.46875 -8.390625 "/></g></g></g><g fill="#ffffff" fill-opacity="1"><g transform="translate(125.414734, 276.422677)"><g><path d="M 6.609375 -2.09375 L 2.140625 -2.09375 L 1.21875 0 L -0.015625 0 L 3.78125 -8.390625 L 4.96875 -8.390625 L 8.78125 0 L 7.53125 0 Z M 6.1875 -3.0625 L 4.375 -7.171875 L 2.5625 -3.0625 Z M 6.1875 -3.0625 "/></g></g></g><g fill="#ffffff" fill-opacity="1"><g transform="translate(137.777803, 276.422677)"><g><path d="M 6.859375 0 L 5.0625 -2.578125 C 4.832031 -2.554688 4.65625 -2.546875 4.53125 -2.546875 L 2.453125 -2.546875 L 2.453125 0 L 1.265625 0 L 1.265625 -8.390625 L 4.53125 -8.390625 C 5.613281 -8.390625 6.46875 -8.128906 7.09375 -7.609375 C 7.71875 -7.085938 8.03125 -6.375 8.03125 -5.46875 C 8.03125 -4.820312 7.867188 -4.269531 7.546875 -3.8125 C 7.234375 -3.351562 6.78125 -3.019531 6.1875 -2.8125 L 8.171875 0 Z M 4.5 -3.578125 C 5.25 -3.578125 5.820312 -3.738281 6.21875 -4.0625 C 6.625 -4.382812 6.828125 -4.851562 6.828125 -5.46875 C 6.828125 -6.070312 6.625 -6.535156 6.21875 -6.859375 C 5.820312 -7.179688 5.25 -7.34375 4.5 -7.34375 L 2.453125 -7.34375 L 2.453125 -3.578125 Z M 4.5 -3.578125 "/></g></g></g><g fill="#ffffff" fill-opacity="1"><g transform="translate(150.080985, 276.422677)"><g><path d="M 9.03125 0 L 9.03125 -6.109375 L 5.984375 -1.015625 L 5.4375 -1.015625 L 2.40625 -6.078125 L 2.40625 0 L 1.265625 0 L 1.265625 -8.390625 L 2.234375 -8.390625 L 5.734375 -2.5 L 9.1875 -8.390625 L 10.171875 -8.390625 L 10.1875 0 Z M 9.03125 0 "/></g></g></g><g fill="#ffffff" fill-opacity="1"><g transform="translate(165.11483, 276.422677)"><g><path d="M 6.609375 -2.09375 L 2.140625 -2.09375 L 1.21875 0 L -0.015625 0 L 3.78125 -8.390625 L 4.96875 -8.390625 L 8.78125 0 L 7.53125 0 Z M 6.1875 -3.0625 L 4.375 -7.171875 L 2.5625 -3.0625 Z M 6.1875 -3.0625 "/></g></g></g><g fill="#ffffff" fill-opacity="1"><g transform="translate(177.477899, 276.422677)"><g><path d="M 5.015625 0.09375 C 4.171875 0.09375 3.410156 -0.0859375 2.734375 -0.453125 C 2.054688 -0.828125 1.523438 -1.335938 1.140625 -1.984375 C 0.765625 -2.640625 0.578125 -3.375 0.578125 -4.1875 C 0.578125 -5.007812 0.765625 -5.742188 1.140625 -6.390625 C 1.523438 -7.046875 2.054688 -7.554688 2.734375 -7.921875 C 3.421875 -8.296875 4.179688 -8.484375 5.015625 -8.484375 C 5.671875 -8.484375 6.269531 -8.375 6.8125 -8.15625 C 7.363281 -7.9375 7.828125 -7.609375 8.203125 -7.171875 L 7.4375 -6.421875 C 6.800781 -7.085938 6.007812 -7.421875 5.0625 -7.421875 C 4.445312 -7.421875 3.882812 -7.28125 3.375 -7 C 2.875 -6.71875 2.484375 -6.332031 2.203125 -5.84375 C 1.921875 -5.351562 1.78125 -4.800781 1.78125 -4.1875 C 1.78125 -3.582031 1.921875 -3.035156 2.203125 -2.546875 C 2.484375 -2.054688 2.875 -1.671875 3.375 -1.390625 C 3.882812 -1.109375 4.445312 -0.96875 5.0625 -0.96875 C 6 -0.96875 6.789062 -1.304688 7.4375 -1.984375 L 8.203125 -1.21875 C 7.828125 -0.789062 7.363281 -0.460938 6.8125 -0.234375 C 6.257812 -0.015625 5.660156 0.09375 5.015625 0.09375 Z M 5.015625 0.09375 "/></g></g></g><g fill="#ffffff" fill-opacity="1"><g transform="translate(189.733175, 276.422677)"><g><path d="M 7.34375 -1.046875 L 7.34375 0 L 1.265625 0 L 1.265625 -8.390625 L 7.171875 -8.390625 L 7.171875 -7.34375 L 2.453125 -7.34375 L 2.453125 -4.765625 L 6.65625 -4.765625 L 6.65625 -3.75 L 2.453125 -3.75 L 2.453125 -1.046875 Z M 7.34375 -1.046875 "/></g></g></g><g fill="#ffffff" fill-opacity="1"><g transform="translate(201.353694, 276.422677)"><g><path d="M 4.734375 0.09375 C 3.617188 0.09375 2.75 -0.222656 2.125 -0.859375 C 1.5 -1.503906 1.1875 -2.425781 1.1875 -3.625 L 1.1875 -8.390625 L 2.390625 -8.390625 L 2.390625 -3.671875 C 2.390625 -1.867188 3.175781 -0.96875 4.75 -0.96875 C 5.507812 -0.96875 6.09375 -1.1875 6.5 -1.625 C 6.914062 -2.070312 7.125 -2.753906 7.125 -3.671875 L 7.125 -8.390625 L 8.28125 -8.390625 L 8.28125 -3.625 C 8.28125 -2.414062 7.96875 -1.492188 7.34375 -0.859375 C 6.71875 -0.222656 5.847656 0.09375 4.734375 0.09375 Z M 4.734375 0.09375 "/></g></g></g><g fill="#ffffff" fill-opacity="1"><g transform="translate(214.423373, 276.422677)"><g><path d="M 2.921875 -7.34375 L 0.046875 -7.34375 L 0.046875 -8.390625 L 6.984375 -8.390625 L 6.984375 -7.34375 L 4.109375 -7.34375 L 4.109375 0 L 2.921875 0 Z M 2.921875 -7.34375 "/></g></g></g><g fill="#ffffff" fill-opacity="1"><g transform="translate(225.049829, 276.422677)"><g><path d="M 1.265625 -8.390625 L 2.453125 -8.390625 L 2.453125 0 L 1.265625 0 Z M 1.265625 -8.390625 "/></g></g></g><g fill="#ffffff" fill-opacity="1"><g transform="translate(232.358781, 276.422677)"><g><path d="M 5.015625 0.09375 C 4.171875 0.09375 3.410156 -0.0859375 2.734375 -0.453125 C 2.054688 -0.828125 1.523438 -1.335938 1.140625 -1.984375 C 0.765625 -2.640625 0.578125 -3.375 0.578125 -4.1875 C 0.578125 -5.007812 0.765625 -5.742188 1.140625 -6.390625 C 1.523438 -7.046875 2.054688 -7.554688 2.734375 -7.921875 C 3.421875 -8.296875 4.179688 -8.484375 5.015625 -8.484375 C 5.671875 -8.484375 6.269531 -8.375 6.8125 -8.15625 C 7.363281 -7.9375 7.828125 -7.609375 8.203125 -7.171875 L 7.4375 -6.421875 C 6.800781 -7.085938 6.007812 -7.421875 5.0625 -7.421875 C 4.445312 -7.421875 3.882812 -7.28125 3.375 -7 C 2.875 -6.71875 2.484375 -6.332031 2.203125 -5.84375 C 1.921875 -5.351562 1.78125 -4.800781 1.78125 -4.1875 C 1.78125 -3.582031 1.921875 -3.035156 2.203125 -2.546875 C 2.484375 -2.054688 2.875 -1.671875 3.375 -1.390625 C 3.882812 -1.109375 4.445312 -0.96875 5.0625 -0.96875 C 6 -0.96875 6.789062 -1.304688 7.4375 -1.984375 L 8.203125 -1.21875 C 7.828125 -0.789062 7.363281 -0.460938 6.8125 -0.234375 C 6.257812 -0.015625 5.660156 0.09375 5.015625 0.09375 Z M 5.015625 0.09375 "/></g></g></g><g fill="#ffffff" fill-opacity="1"><g transform="translate(244.614052, 276.422677)"><g><path d="M 6.609375 -2.09375 L 2.140625 -2.09375 L 1.21875 0 L -0.015625 0 L 3.78125 -8.390625 L 4.96875 -8.390625 L 8.78125 0 L 7.53125 0 Z M 6.1875 -3.0625 L 4.375 -7.171875 L 2.5625 -3.0625 Z M 6.1875 -3.0625 "/></g></g></g><g fill="#ffffff" fill-opacity="1"><g transform="translate(256.977127, 276.422677)"><g><path d="M 1.265625 -8.390625 L 2.453125 -8.390625 L 2.453125 -1.046875 L 7 -1.046875 L 7 0 L 1.265625 0 Z M 1.265625 -8.390625 "/></g></g></g><g fill="#ffffff" fill-opacity="1"><g transform="translate(267.687422, 276.422677)"><g><path d="M 3.703125 0.09375 C 3.066406 0.09375 2.457031 0 1.875 -0.1875 C 1.289062 -0.382812 0.828125 -0.640625 0.484375 -0.953125 L 0.9375 -1.890625 C 1.257812 -1.609375 1.664062 -1.375 2.15625 -1.1875 C 2.65625 -1.007812 3.171875 -0.921875 3.703125 -0.921875 C 4.398438 -0.921875 4.921875 -1.035156 5.265625 -1.265625 C 5.609375 -1.503906 5.78125 -1.820312 5.78125 -2.21875 C 5.78125 -2.507812 5.6875 -2.742188 5.5 -2.921875 C 5.3125 -3.097656 5.078125 -3.234375 4.796875 -3.328125 C 4.523438 -3.421875 4.132812 -3.53125 3.625 -3.65625 C 3 -3.8125 2.488281 -3.960938 2.09375 -4.109375 C 1.707031 -4.265625 1.375 -4.5 1.09375 -4.8125 C 0.820312 -5.125 0.6875 -5.550781 0.6875 -6.09375 C 0.6875 -6.539062 0.804688 -6.941406 1.046875 -7.296875 C 1.285156 -7.660156 1.644531 -7.945312 2.125 -8.15625 C 2.601562 -8.375 3.195312 -8.484375 3.90625 -8.484375 C 4.40625 -8.484375 4.894531 -8.414062 5.375 -8.28125 C 5.851562 -8.15625 6.265625 -7.972656 6.609375 -7.734375 L 6.203125 -6.78125 C 5.859375 -7.007812 5.484375 -7.179688 5.078125 -7.296875 C 4.679688 -7.410156 4.289062 -7.46875 3.90625 -7.46875 C 3.226562 -7.46875 2.71875 -7.34375 2.375 -7.09375 C 2.039062 -6.84375 1.875 -6.523438 1.875 -6.140625 C 1.875 -5.847656 1.96875 -5.613281 2.15625 -5.4375 C 2.34375 -5.257812 2.578125 -5.117188 2.859375 -5.015625 C 3.148438 -4.910156 3.539062 -4.804688 4.03125 -4.703125 C 4.65625 -4.546875 5.160156 -4.390625 5.546875 -4.234375 C 5.929688 -4.085938 6.257812 -3.859375 6.53125 -3.546875 C 6.8125 -3.234375 6.953125 -2.8125 6.953125 -2.28125 C 6.953125 -1.84375 6.832031 -1.441406 6.59375 -1.078125 C 6.351562 -0.722656 5.988281 -0.4375 5.5 -0.21875 C 5.007812 -0.0078125 4.410156 0.09375 3.703125 0.09375 Z M 3.703125 0.09375 "/></g></g></g><g clip-path="url(#5b87d4145a)"><path fill="#ffffff" d="M 203.789062 183.09375 C 202.128906 181.433594 200.59375 179.652344 199.199219 177.773438 L 199.199219 188.757812 C 199.199219 189.148438 199.199219 189.539062 199.175781 189.90625 C 199.152344 190.273438 199.101562 190.664062 199.03125 191.054688 C 198.957031 191.445312 198.882812 191.808594 198.761719 192.175781 C 198.664062 192.542969 198.542969 192.910156 198.394531 193.273438 C 198.25 193.640625 198.101562 193.984375 197.90625 194.324219 C 197.734375 194.667969 197.539062 195.007812 197.320312 195.324219 C 197.101562 195.644531 196.882812 195.960938 196.636719 196.253906 C 196.394531 196.546875 196.148438 196.839844 195.855469 197.109375 C 195.589844 197.375 195.296875 197.644531 195.003906 197.890625 C 194.710938 198.132812 194.390625 198.378906 194.074219 198.597656 C 193.757812 198.816406 193.414062 199.011719 193.074219 199.207031 C 192.730469 199.402344 192.390625 199.550781 192.023438 199.71875 C 191.65625 199.867188 191.316406 200.011719 190.925781 200.109375 C 190.558594 200.234375 190.191406 200.332031 189.800781 200.402344 C 189.410156 200.476562 189.046875 200.527344 188.65625 200.574219 C 188.265625 200.625 187.875 200.625 187.507812 200.625 C 187.117188 200.625 186.726562 200.597656 186.359375 200.574219 C 185.96875 200.527344 185.601562 200.476562 185.210938 200.402344 C 184.820312 200.332031 184.457031 200.234375 184.089844 200.109375 C 183.722656 199.988281 183.355469 199.867188 182.992188 199.71875 C 182.625 199.574219 182.28125 199.402344 181.941406 199.207031 C 181.597656 199.011719 181.28125 198.816406 180.941406 198.597656 C 180.625 198.378906 180.304688 198.15625 180.011719 197.890625 C 179.71875 197.644531 179.425781 197.375 179.160156 197.109375 C 178.890625 196.839844 178.621094 196.546875 178.378906 196.253906 C 178.132812 195.960938 177.914062 195.644531 177.695312 195.324219 C 177.472656 195.007812 177.277344 194.667969 177.109375 194.324219 C 176.9375 193.984375 176.765625 193.640625 176.621094 193.273438 C 176.472656 192.910156 176.351562 192.542969 176.253906 192.175781 C 176.15625 191.808594 176.058594 191.417969 175.984375 191.054688 C 175.910156 190.664062 175.863281 190.296875 175.839844 189.90625 C 175.8125 189.515625 175.789062 189.125 175.8125 188.757812 L 175.8125 163.492188 L 150.621094 163.492188 C 150.007812 163.492188 149.398438 163.441406 148.789062 163.34375 C 148.179688 163.246094 147.59375 163.101562 147.007812 162.90625 C 146.421875 162.710938 145.859375 162.492188 145.324219 162.199219 C 144.785156 161.929688 144.25 161.585938 143.761719 161.246094 C 143.273438 160.878906 142.808594 160.488281 142.367188 160.050781 C 141.929688 159.609375 141.539062 159.144531 141.171875 158.65625 C 140.804688 158.167969 140.488281 157.632812 140.21875 157.09375 C 139.953125 156.558594 139.707031 155.972656 139.511719 155.410156 C 139.316406 154.824219 139.195312 154.238281 139.097656 153.628906 C 139 153.019531 138.949219 152.410156 138.949219 151.796875 C 138.949219 151.1875 139 150.578125 139.097656 149.96875 C 139.195312 149.355469 139.339844 148.769531 139.535156 148.183594 C 139.730469 147.597656 139.976562 147.039062 140.246094 146.5 C 140.511719 145.964844 140.855469 145.425781 141.195312 144.9375 C 141.5625 144.449219 141.953125 143.984375 142.394531 143.546875 C 142.832031 143.105469 143.296875 142.714844 143.785156 142.375 L 144.664062 141.738281 C 143.515625 140.789062 142.464844 139.761719 141.488281 138.640625 C 140.441406 137.46875 139.488281 136.222656 138.585938 134.929688 L 138.144531 135.246094 C 137.707031 135.5625 137.289062 135.90625 136.898438 136.273438 C 136.484375 136.636719 136.09375 137.003906 135.726562 137.394531 C 135.363281 137.785156 134.996094 138.175781 134.652344 138.589844 C 134.3125 139.003906 133.96875 139.421875 133.675781 139.882812 C 133.359375 140.324219 133.066406 140.789062 132.796875 141.25 C 132.53125 141.714844 132.261719 142.179688 132.015625 142.667969 C 131.773438 143.15625 131.554688 143.644531 131.359375 144.132812 C 131.164062 144.621094 130.96875 145.132812 130.820312 145.644531 C 130.652344 146.160156 130.527344 146.671875 130.40625 147.207031 C 130.285156 147.746094 130.1875 148.257812 130.113281 148.796875 C 130.039062 149.332031 129.96875 149.871094 129.941406 150.40625 C 129.917969 150.96875 129.917969 151.503906 129.917969 152.042969 C 129.917969 152.578125 129.941406 153.117188 129.992188 153.652344 C 130.039062 154.191406 130.113281 154.726562 130.1875 155.265625 C 130.285156 155.800781 130.382812 156.3125 130.503906 156.851562 C 130.625 157.363281 130.796875 157.902344 130.945312 158.414062 C 131.113281 158.925781 131.308594 159.4375 131.503906 159.925781 C 131.722656 160.414062 131.945312 160.902344 132.1875 161.390625 C 132.433594 161.878906 132.699219 162.34375 132.992188 162.808594 C 133.285156 163.273438 133.578125 163.710938 133.898438 164.152344 C 134.214844 164.589844 134.554688 165.003906 134.898438 165.421875 C 135.238281 165.835938 135.628906 166.226562 135.996094 166.59375 C 136.386719 166.984375 136.777344 167.324219 137.191406 167.691406 C 137.609375 168.03125 138.023438 168.375 138.460938 168.691406 C 138.902344 169.007812 139.339844 169.300781 139.804688 169.59375 C 140.269531 169.886719 140.734375 170.132812 141.222656 170.375 C 141.710938 170.621094 142.199219 170.839844 142.6875 171.058594 C 143.175781 171.253906 143.6875 171.449219 144.199219 171.621094 C 144.710938 171.792969 145.226562 171.9375 145.761719 172.058594 C 146.273438 172.183594 146.8125 172.28125 147.347656 172.378906 C 147.886719 172.449219 148.421875 172.523438 148.960938 172.574219 C 149.496094 172.621094 150.035156 172.644531 150.570312 172.644531 L 166.757812 172.644531 L 166.757812 188.808594 C 166.757812 189.148438 166.757812 189.492188 166.757812 189.832031 C 166.757812 190.175781 166.78125 190.515625 166.804688 190.859375 C 166.828125 191.199219 166.878906 191.542969 166.925781 191.882812 C 166.976562 192.226562 167.023438 192.566406 167.097656 192.910156 C 167.171875 193.25 167.21875 193.59375 167.316406 193.910156 C 167.390625 194.25 167.488281 194.570312 167.585938 194.910156 C 167.683594 195.226562 167.78125 195.570312 167.902344 195.886719 C 168.027344 196.203125 168.125 196.523438 168.269531 196.839844 C 168.390625 197.15625 168.539062 197.472656 168.683594 197.792969 C 168.832031 198.109375 168.976562 198.402344 169.125 198.71875 C 169.296875 199.011719 169.441406 199.328125 169.613281 199.621094 C 169.785156 199.914062 169.953125 200.207031 170.148438 200.5 C 170.34375 200.792969 170.539062 201.0625 170.734375 201.355469 C 170.929688 201.625 171.152344 201.894531 171.371094 202.160156 C 171.589844 202.429688 171.808594 202.699219 172.03125 202.941406 C 172.25 203.1875 172.492188 203.457031 172.738281 203.699219 C 172.980469 203.945312 173.226562 204.1875 173.46875 204.40625 C 173.714844 204.625 173.984375 204.871094 174.25 205.089844 C 174.519531 205.308594 174.789062 205.53125 175.058594 205.726562 C 175.324219 205.921875 175.617188 206.140625 175.886719 206.3125 C 176.179688 206.507812 176.449219 206.675781 176.742188 206.871094 C 177.035156 207.042969 177.328125 207.214844 177.644531 207.386719 C 177.9375 207.554688 178.253906 207.703125 178.574219 207.847656 C 178.890625 207.996094 179.183594 208.140625 179.5 208.265625 C 179.816406 208.386719 180.136719 208.53125 180.453125 208.628906 C 180.769531 208.753906 181.109375 208.851562 181.429688 208.949219 C 181.746094 209.046875 182.085938 209.144531 182.429688 209.214844 C 182.769531 209.289062 183.089844 209.386719 183.429688 209.4375 C 183.773438 209.484375 184.113281 209.558594 184.429688 209.605469 C 184.773438 209.65625 185.113281 209.703125 185.457031 209.730469 C 185.796875 209.753906 186.140625 209.777344 186.480469 209.800781 C 186.824219 209.828125 187.164062 209.828125 187.507812 209.828125 C 187.847656 209.828125 188.191406 209.828125 188.53125 209.800781 C 188.875 209.777344 189.214844 209.753906 189.558594 209.730469 C 189.898438 209.703125 190.242188 209.65625 190.582031 209.605469 C 190.925781 209.558594 191.265625 209.507812 191.585938 209.4375 C 191.902344 209.363281 192.242188 209.289062 192.585938 209.214844 C 192.925781 209.144531 193.246094 209.046875 193.585938 208.949219 C 193.902344 208.851562 194.246094 208.726562 194.5625 208.628906 C 194.878906 208.507812 195.199219 208.386719 195.515625 208.265625 C 195.832031 208.140625 196.148438 207.996094 196.441406 207.847656 C 196.761719 207.703125 197.054688 207.554688 197.371094 207.386719 C 197.664062 207.214844 197.980469 207.042969 198.273438 206.871094 C 198.566406 206.703125 198.859375 206.507812 199.128906 206.3125 C 199.421875 206.117188 199.6875 205.921875 199.957031 205.726562 C 200.226562 205.53125 200.496094 205.308594 200.761719 205.089844 C 201.03125 204.871094 201.277344 204.652344 201.542969 204.40625 C 201.789062 204.1875 202.03125 203.945312 202.277344 203.699219 C 202.519531 203.457031 202.742188 203.210938 202.984375 202.941406 C 203.203125 202.699219 203.425781 202.429688 203.644531 202.160156 C 203.863281 201.894531 204.058594 201.625 204.277344 201.355469 C 204.472656 201.085938 204.667969 200.792969 204.863281 200.5 C 205.058594 200.207031 205.230469 199.914062 205.402344 199.621094 C 205.574219 199.328125 205.742188 199.035156 205.890625 198.71875 C 206.035156 198.425781 206.207031 198.109375 206.328125 197.792969 C 206.476562 197.472656 206.597656 197.15625 206.746094 196.839844 C 206.867188 196.523438 206.988281 196.203125 207.109375 195.886719 C 207.234375 195.570312 207.332031 195.226562 207.429688 194.910156 C 207.527344 194.59375 207.625 194.25 207.695312 193.910156 C 207.769531 193.566406 207.84375 193.25 207.917969 192.910156 C 207.988281 192.566406 208.039062 192.226562 208.085938 191.882812 C 208.136719 191.542969 208.160156 191.199219 208.210938 190.859375 C 208.234375 190.515625 208.257812 190.175781 208.257812 189.832031 C 208.257812 189.492188 208.28125 189.148438 208.257812 188.808594 L 208.257812 186.953125 C 206.671875 185.730469 205.15625 184.488281 203.789062 183.09375 Z M 203.789062 183.09375 " fill-opacity="1" fill-rule="nonzero"/></g><g clip-path="url(#257b3f1ce6)"><path fill="#ffffff" d="M 168.757812 135.101562 C 168.074219 136.710938 167.121094 138.152344 165.902344 139.394531 L 166.195312 140.078125 L 166.195312 140.152344 L 175.863281 140.152344 L 175.863281 114.933594 C 175.863281 114.570312 175.886719 114.179688 175.9375 113.8125 C 175.984375 113.445312 176.035156 113.054688 176.132812 112.6875 C 176.203125 112.324219 176.300781 111.957031 176.425781 111.589844 C 176.546875 111.222656 176.667969 110.882812 176.816406 110.539062 C 176.960938 110.199219 177.132812 109.855469 177.304688 109.515625 C 177.472656 109.171875 177.695312 108.855469 177.890625 108.5625 C 178.109375 108.246094 178.328125 107.953125 178.574219 107.660156 C 178.816406 107.367188 179.0625 107.097656 179.328125 106.828125 C 179.597656 106.5625 179.890625 106.316406 180.183594 106.074219 C 180.476562 105.828125 180.769531 105.609375 181.085938 105.414062 C 181.402344 105.21875 181.722656 105.023438 182.0625 104.851562 C 182.40625 104.683594 182.746094 104.511719 183.089844 104.363281 C 183.429688 104.21875 183.796875 104.097656 184.164062 104 C 184.527344 103.902344 184.894531 103.804688 185.261719 103.730469 C 185.628906 103.65625 185.992188 103.609375 186.382812 103.558594 C 186.75 103.511719 187.140625 103.511719 187.507812 103.511719 C 187.875 103.511719 188.265625 103.535156 188.628906 103.558594 C 188.996094 103.582031 189.386719 103.65625 189.753906 103.730469 C 190.121094 103.804688 190.484375 103.902344 190.851562 104 C 191.21875 104.097656 191.558594 104.242188 191.925781 104.363281 C 192.269531 104.511719 192.609375 104.65625 192.953125 104.851562 C 193.292969 105.023438 193.609375 105.21875 193.929688 105.414062 C 194.246094 105.609375 194.539062 105.851562 194.832031 106.074219 C 195.125 106.316406 195.417969 106.5625 195.6875 106.828125 C 195.953125 107.097656 196.222656 107.367188 196.441406 107.660156 C 196.6875 107.953125 196.90625 108.246094 197.125 108.5625 C 197.347656 108.878906 197.542969 109.199219 197.710938 109.515625 C 197.882812 109.832031 198.054688 110.175781 198.199219 110.539062 C 198.347656 110.882812 198.492188 111.25 198.589844 111.589844 C 198.710938 111.957031 198.808594 112.324219 198.882812 112.6875 C 198.957031 113.054688 199.03125 113.421875 199.078125 113.8125 C 199.128906 114.179688 199.152344 114.570312 199.152344 114.933594 L 199.152344 140.175781 L 203.496094 140.175781 C 204.207031 139.835938 204.960938 139.566406 205.71875 139.394531 C 206.5 139.226562 207.28125 139.128906 208.0625 139.128906 C 208.84375 139.128906 209.625 139.226562 210.40625 139.394531 C 211.1875 139.566406 211.921875 139.835938 212.628906 140.175781 L 224.371094 140.175781 C 224.761719 140.175781 225.128906 140.203125 225.519531 140.226562 C 225.910156 140.273438 226.273438 140.324219 226.640625 140.398438 C 227.007812 140.46875 227.375 140.566406 227.738281 140.664062 C 228.105469 140.789062 228.472656 140.910156 228.8125 141.054688 C 229.15625 141.203125 229.523438 141.375 229.839844 141.542969 C 230.179688 141.714844 230.5 141.910156 230.816406 142.128906 C 231.132812 142.351562 231.449219 142.570312 231.742188 142.8125 C 232.035156 143.058594 232.328125 143.300781 232.597656 143.570312 C 232.867188 143.839844 233.132812 144.132812 233.355469 144.425781 C 233.597656 144.71875 233.816406 145.035156 234.039062 145.351562 C 234.257812 145.671875 234.453125 145.988281 234.625 146.328125 C 234.792969 146.671875 234.964844 147.011719 235.113281 147.355469 C 235.257812 147.695312 235.378906 148.0625 235.503906 148.429688 C 235.625 148.796875 235.699219 149.160156 235.769531 149.527344 C 235.84375 149.894531 235.894531 150.285156 235.941406 150.652344 C 235.992188 151.042969 235.992188 151.40625 235.992188 151.796875 C 235.992188 152.507812 235.917969 153.214844 235.796875 153.898438 C 239.089844 154.558594 241.851562 155.851562 243.460938 158.730469 C 243.558594 158.878906 243.609375 159.046875 243.707031 159.21875 L 244.023438 158.292969 C 244.144531 157.902344 244.265625 157.511719 244.363281 157.121094 C 244.460938 156.730469 244.558594 156.339844 244.632812 155.921875 C 244.707031 155.53125 244.78125 155.117188 244.851562 154.726562 C 244.925781 154.335938 244.949219 153.921875 245 153.507812 C 245.023438 153.09375 245.046875 152.703125 245.074219 152.285156 C 245.074219 151.871094 245.074219 151.480469 245.074219 151.066406 C 245.046875 150.652344 245.023438 150.261719 245 149.84375 C 244.976562 149.429688 244.902344 149.039062 244.851562 148.625 C 244.78125 148.210938 244.707031 147.820312 244.632812 147.429688 C 244.535156 147.039062 244.4375 146.621094 244.339844 146.230469 C 244.242188 145.839844 244.121094 145.449219 243.972656 145.058594 C 243.851562 144.667969 243.707031 144.304688 243.535156 143.914062 C 243.386719 143.546875 243.21875 143.15625 243.046875 142.789062 C 242.875 142.421875 242.679688 142.058594 242.484375 141.714844 C 242.289062 141.375 242.070312 141.007812 241.851562 140.664062 C 241.628906 140.324219 241.410156 139.980469 241.167969 139.664062 C 240.921875 139.324219 240.679688 139.003906 240.410156 138.6875 C 240.140625 138.371094 239.871094 138.054688 239.605469 137.761719 C 239.335938 137.46875 239.042969 137.175781 238.75 136.882812 C 238.457031 136.589844 238.164062 136.320312 237.847656 136.050781 C 237.527344 135.785156 237.210938 135.539062 236.894531 135.296875 C 236.578125 135.050781 236.234375 134.808594 235.894531 134.585938 C 235.550781 134.367188 235.210938 134.148438 234.867188 133.929688 C 234.527344 133.734375 234.160156 133.511719 233.792969 133.34375 C 233.425781 133.148438 233.0625 132.976562 232.695312 132.804688 C 232.328125 132.632812 231.9375 132.488281 231.546875 132.339844 C 231.15625 132.195312 230.789062 132.074219 230.402344 131.949219 C 230.011719 131.828125 229.621094 131.730469 229.230469 131.632812 C 228.839844 131.535156 228.421875 131.460938 228.03125 131.390625 C 227.640625 131.316406 227.226562 131.265625 226.8125 131.21875 C 226.398438 131.167969 226.007812 131.144531 225.589844 131.121094 C 225.175781 131.097656 224.785156 131.070312 224.371094 131.097656 L 208.210938 131.097656 L 208.210938 114.933594 C 208.210938 114.25 208.160156 113.59375 208.085938 112.933594 C 208.015625 112.273438 207.890625 111.613281 207.769531 110.957031 C 207.625 110.296875 207.453125 109.660156 207.257812 109.003906 C 207.0625 108.367188 206.816406 107.734375 206.550781 107.121094 C 206.28125 106.511719 205.988281 105.902344 205.671875 105.316406 C 205.351562 104.730469 204.988281 104.144531 204.621094 103.609375 C 204.230469 103.046875 203.839844 102.507812 203.398438 101.996094 C 202.960938 101.484375 202.519531 100.996094 202.03125 100.507812 C 201.542969 100.042969 201.054688 99.578125 200.519531 99.164062 C 200.007812 98.75 199.445312 98.335938 198.882812 97.96875 C 198.320312 97.601562 197.734375 97.261719 197.152344 96.941406 C 196.566406 96.625 195.953125 96.355469 195.320312 96.089844 C 194.710938 95.84375 194.074219 95.601562 193.414062 95.429688 C 192.78125 95.234375 192.121094 95.0625 191.460938 94.941406 C 190.804688 94.820312 190.144531 94.722656 189.460938 94.648438 C 188.875 94.550781 188.214844 94.527344 187.53125 94.527344 C 186.847656 94.527344 186.1875 94.550781 185.53125 94.625 C 184.871094 94.695312 184.1875 94.792969 183.527344 94.917969 C 182.867188 95.039062 182.210938 95.210938 181.574219 95.40625 C 180.941406 95.601562 180.304688 95.820312 179.671875 96.0625 C 179.0625 96.308594 178.449219 96.601562 177.839844 96.917969 C 177.253906 97.234375 176.667969 97.578125 176.105469 97.945312 C 175.546875 98.308594 175.007812 98.699219 174.472656 99.140625 C 173.957031 99.554688 173.445312 100.019531 172.957031 100.484375 C 172.46875 100.945312 172.03125 101.460938 171.589844 101.972656 C 171.152344 102.484375 170.761719 103.023438 170.371094 103.582031 C 169.980469 104.144531 169.636719 104.707031 169.320312 105.292969 C 169.003906 105.878906 168.710938 106.488281 168.441406 107.097656 C 168.171875 107.707031 167.953125 108.34375 167.734375 108.976562 C 167.539062 109.613281 167.367188 110.273438 167.21875 110.929688 C 167.074219 111.589844 166.976562 112.25 166.902344 112.910156 C 166.828125 113.566406 166.78125 114.25 166.78125 114.910156 L 166.78125 115.300781 C 169.246094 121.257812 170.636719 130.558594 168.757812 135.101562 Z M 168.757812 135.101562 " fill-opacity="1" fill-rule="nonzero"/></g><path fill="#ffffff" d="M 136.484375 124.480469 C 136.875 127.457031 139.925781 132.804688 143.539062 136.882812 C 145.03125 138.566406 147.25 140.714844 149.351562 141.496094 C 150.300781 141.8125 151.253906 142.03125 152.253906 142.128906 C 153.257812 142.226562 154.234375 142.203125 155.234375 142.058594 L 156.285156 144.449219 C 156.355469 144.621094 156.453125 144.792969 156.578125 144.9375 C 156.699219 145.085938 156.820312 145.230469 156.992188 145.351562 C 157.136719 145.476562 157.308594 145.574219 157.480469 145.644531 C 157.652344 145.71875 157.847656 145.769531 158.042969 145.816406 L 158.140625 146.160156 L 159.238281 145.671875 C 159.335938 145.988281 159.457031 146.257812 159.578125 146.523438 C 160.3125 148.183594 161.289062 149.722656 162.484375 151.066406 C 163.535156 152.214844 164.707031 153.238281 166 154.09375 C 167.292969 154.945312 168.683594 155.628906 170.175781 156.144531 C 174.445312 157.679688 178.035156 157.167969 181.207031 156.703125 C 186.628906 155.921875 190.21875 155.410156 195.148438 165.8125 C 197.980469 171.816406 201.738281 177.261719 205.695312 181.191406 C 210.40625 185.855469 215.386719 188.34375 220.148438 188.464844 C 227.203125 188.613281 233.378906 183.753906 238.554688 174.039062 C 242.070312 167.421875 242.925781 162.980469 241.289062 160.074219 C 239.261719 156.460938 234.257812 156.191406 228.449219 155.851562 C 224.027344 155.605469 219.023438 155.3125 215.070312 153.457031 C 215.140625 153.3125 215.214844 153.164062 215.289062 153.042969 C 215.363281 152.898438 215.410156 152.75 215.484375 152.605469 C 215.53125 152.457031 215.605469 152.3125 215.65625 152.164062 C 215.703125 152.019531 215.753906 151.871094 215.800781 151.699219 C 215.851562 151.554688 215.875 151.382812 215.921875 151.238281 C 215.949219 151.089844 215.972656 150.917969 215.996094 150.773438 C 216.019531 150.601562 216.046875 150.457031 216.046875 150.285156 C 216.070312 150.113281 216.070312 149.96875 216.070312 149.796875 C 216.070312 149.625 216.070312 149.480469 216.070312 149.308594 C 216.070312 149.136719 216.046875 148.992188 216.046875 148.820312 C 216.019531 148.648438 215.996094 148.503906 215.972656 148.355469 C 215.949219 148.210938 215.921875 148.039062 215.875 147.890625 C 215.851562 147.746094 215.800781 147.574219 215.753906 147.429688 C 215.703125 147.28125 215.65625 147.136719 215.605469 146.964844 C 215.558594 146.816406 215.484375 146.671875 215.433594 146.523438 C 215.363281 146.378906 215.3125 146.230469 215.238281 146.085938 C 215.167969 145.9375 215.09375 145.792969 215.019531 145.671875 C 214.945312 145.523438 214.847656 145.402344 214.777344 145.253906 C 214.679688 145.132812 214.605469 144.988281 214.507812 144.863281 C 214.410156 144.742188 214.3125 144.621094 214.214844 144.5 C 214.117188 144.375 213.996094 144.253906 213.898438 144.15625 C 213.777344 144.035156 213.679688 143.9375 213.554688 143.816406 C 213.433594 143.71875 213.3125 143.59375 213.191406 143.496094 C 213.066406 143.398438 212.945312 143.300781 212.800781 143.203125 C 212.675781 143.105469 212.53125 143.035156 212.410156 142.9375 C 212.261719 142.863281 212.140625 142.765625 211.992188 142.691406 C 211.847656 142.617188 211.699219 142.546875 211.554688 142.472656 C 211.40625 142.398438 211.261719 142.351562 211.113281 142.277344 C 210.96875 142.226562 210.820312 142.15625 210.675781 142.105469 C 210.527344 142.058594 210.359375 142.007812 210.210938 141.984375 C 210.066406 141.933594 209.894531 141.910156 209.746094 141.886719 C 209.601562 141.863281 209.429688 141.835938 209.285156 141.8125 C 209.136719 141.789062 208.964844 141.765625 208.796875 141.765625 C 208.625 141.765625 208.476562 141.738281 208.308594 141.738281 C 208.136719 141.738281 207.988281 141.738281 207.820312 141.738281 C 207.648438 141.738281 207.5 141.765625 207.332031 141.789062 C 207.160156 141.8125 207.011719 141.835938 206.867188 141.863281 C 206.71875 141.886719 206.550781 141.910156 206.402344 141.960938 C 206.257812 142.007812 206.085938 142.03125 205.9375 142.082031 C 205.792969 142.128906 205.644531 142.179688 205.476562 142.226562 C 205.328125 142.277344 205.183594 142.351562 205.035156 142.398438 C 204.890625 142.472656 204.742188 142.519531 204.597656 142.59375 C 204.449219 142.667969 204.304688 142.742188 204.179688 142.839844 C 204.058594 142.9375 203.914062 143.007812 203.765625 143.105469 C 203.644531 143.203125 203.496094 143.300781 203.375 143.398438 C 203.253906 143.496094 203.132812 143.59375 203.007812 143.691406 C 202.886719 143.789062 202.765625 143.914062 202.667969 144.011719 C 202.546875 144.132812 202.449219 144.230469 202.351562 144.351562 C 202.253906 144.472656 202.128906 144.597656 202.03125 144.71875 C 201.933594 144.839844 201.835938 144.960938 201.738281 145.109375 C 201.640625 145.230469 201.570312 145.378906 201.472656 145.5 C 201.398438 145.644531 201.300781 145.769531 201.226562 145.914062 C 201.152344 146.0625 201.082031 146.207031 201.007812 146.355469 C 200.933594 146.5 200.886719 146.648438 200.8125 146.792969 C 200.761719 146.941406 200.714844 147.085938 200.664062 147.257812 C 200.617188 147.402344 200.566406 147.550781 200.542969 147.722656 C 200.496094 147.867188 200.46875 148.039062 200.445312 148.183594 C 200.421875 148.332031 200.398438 148.503906 200.371094 148.648438 C 200.347656 148.820312 200.347656 148.964844 200.324219 149.136719 C 200.324219 149.308594 200.300781 149.453125 200.300781 149.625 C 200.300781 149.796875 200.300781 149.941406 200.324219 150.113281 C 200.324219 150.285156 200.347656 150.429688 200.371094 150.601562 C 200.398438 150.773438 200.421875 150.917969 200.445312 151.066406 C 200.46875 151.210938 200.519531 151.382812 200.542969 151.53125 C 200.566406 151.675781 200.617188 151.847656 200.664062 151.992188 C 200.714844 152.140625 200.761719 152.285156 200.8125 152.457031 C 200.859375 152.605469 200.933594 152.75 201.007812 152.898438 C 201.082031 153.042969 201.152344 153.191406 201.226562 153.335938 C 201.300781 153.484375 201.375 153.605469 201.472656 153.75 C 201.542969 153.898438 201.640625 154.019531 201.738281 154.140625 C 201.835938 154.265625 201.933594 154.410156 202.03125 154.53125 C 202.128906 154.65625 202.226562 154.777344 202.351562 154.898438 C 202.449219 155.019531 202.570312 155.140625 202.691406 155.238281 C 202.8125 155.363281 202.910156 155.460938 203.035156 155.558594 C 203.15625 155.65625 203.277344 155.753906 203.398438 155.851562 C 203.523438 155.949219 203.644531 156.046875 203.789062 156.144531 C 203.914062 156.242188 204.058594 156.3125 204.207031 156.410156 C 204.351562 156.484375 204.472656 156.582031 204.621094 156.65625 C 204.765625 156.730469 204.914062 156.800781 205.058594 156.851562 C 205.207031 156.925781 205.351562 156.972656 205.5 157.023438 C 205.644531 157.070312 205.792969 157.121094 205.964844 157.167969 C 206.109375 157.21875 206.28125 157.265625 206.425781 157.289062 C 206.574219 157.339844 206.746094 157.363281 206.890625 157.386719 C 207.039062 157.414062 207.207031 157.4375 207.355469 157.460938 C 207.527344 157.484375 207.671875 157.484375 207.84375 157.511719 C 208.015625 157.511719 208.160156 157.511719 208.332031 157.511719 C 208.503906 157.511719 208.648438 157.511719 208.820312 157.484375 C 208.992188 157.484375 209.136719 157.460938 209.308594 157.4375 C 209.453125 157.414062 209.625 157.386719 209.773438 157.363281 C 209.917969 157.339844 210.089844 157.289062 210.234375 157.265625 C 210.382812 157.21875 210.554688 157.191406 210.699219 157.144531 C 210.847656 157.09375 210.992188 157.046875 211.140625 156.972656 C 211.285156 156.925781 211.433594 156.851562 211.578125 156.777344 C 211.726562 156.703125 211.871094 156.632812 212.019531 156.558594 C 212.164062 156.484375 212.285156 156.410156 212.433594 156.3125 C 212.578125 156.242188 212.703125 156.144531 212.824219 156.046875 C 217.609375 158.585938 223.296875 158.902344 228.351562 159.195312 C 232.964844 159.464844 237.308594 159.707031 238.433594 161.683594 C 239.117188 162.882812 239.1875 165.714844 235.648438 172.402344 C 231.132812 180.921875 225.957031 185.195312 220.316406 185.046875 C 211.238281 184.851562 202.789062 173.769531 198.320312 164.347656 C 192.316406 151.699219 186.480469 152.53125 180.84375 153.335938 C 177.9375 153.75 174.933594 154.191406 171.445312 152.945312 C 165.949219 150.96875 163.511719 147.234375 162.4375 144.277344 L 162.679688 144.179688 C 162.828125 144.132812 162.949219 144.035156 163.070312 143.960938 C 163.191406 143.886719 163.316406 143.765625 163.414062 143.667969 C 163.511719 143.570312 163.609375 143.449219 163.707031 143.300781 C 163.777344 143.179688 163.851562 143.035156 163.902344 142.886719 C 163.949219 142.742188 164 142.59375 164.023438 142.449219 C 164.046875 142.300781 164.070312 142.15625 164.070312 141.984375 C 164.070312 141.835938 164.046875 141.691406 164.023438 141.542969 C 164 141.398438 163.949219 141.25 163.875 141.105469 L 162.828125 138.710938 C 163.609375 138.078125 164.292969 137.371094 164.902344 136.589844 C 165.511719 135.808594 166.023438 134.929688 166.414062 134.027344 C 168.417969 129.191406 165.828125 116.839844 162.679688 113.03125 C 161.238281 111.320312 159.066406 110.34375 156.332031 110.175781 C 156.160156 109.855469 155.941406 109.5625 155.671875 109.296875 C 155.40625 109.027344 155.136719 108.808594 154.820312 108.613281 C 154.5 108.417969 154.160156 108.269531 153.792969 108.171875 C 153.425781 108.074219 153.0625 108.027344 152.695312 108.027344 C 152.523438 108.027344 152.351562 108.027344 152.183594 108.050781 C 152.011719 108.074219 151.839844 108.097656 151.695312 108.148438 C 151.523438 108.195312 151.375 108.246094 151.207031 108.292969 C 151.058594 108.34375 150.886719 108.417969 150.742188 108.515625 C 150.59375 108.585938 150.449219 108.683594 150.300781 108.78125 C 150.15625 108.878906 150.035156 108.976562 149.910156 109.101562 C 149.789062 109.222656 149.667969 109.34375 149.570312 109.464844 C 149.472656 109.589844 149.351562 109.734375 149.277344 109.882812 C 149.179688 110.027344 149.105469 110.175781 149.03125 110.320312 C 148.960938 110.46875 148.886719 110.636719 148.835938 110.785156 C 148.789062 110.957031 148.738281 111.101562 148.691406 111.273438 C 148.667969 111.445312 148.640625 111.613281 148.617188 111.785156 C 148.59375 111.957031 148.59375 112.128906 148.617188 112.296875 C 148.617188 112.46875 148.640625 112.640625 148.667969 112.8125 C 148.691406 112.980469 148.738281 113.152344 148.789062 113.300781 C 148.835938 113.46875 148.886719 113.617188 148.960938 113.761719 C 149.128906 114.128906 149.324219 114.472656 149.59375 114.789062 C 149.863281 115.105469 150.15625 115.351562 150.496094 115.570312 C 150.839844 115.789062 151.207031 115.960938 151.597656 116.058594 C 151.988281 116.15625 152.378906 116.230469 152.792969 116.203125 C 153.207031 116.203125 153.597656 116.132812 153.988281 116.007812 C 154.378906 115.886719 154.746094 115.691406 155.0625 115.472656 C 155.40625 115.226562 155.699219 114.960938 155.941406 114.640625 C 156.1875 114.324219 156.382812 113.957031 156.527344 113.59375 C 158.066406 113.738281 159.214844 114.25 159.96875 115.105469 L 160.042969 115.203125 C 161.167969 116.546875 162.386719 120.011719 163.121094 123.796875 C 163.828125 127.582031 163.902344 131.21875 163.265625 132.730469 C 162.117188 135.515625 158.96875 137.371094 157.992188 137.90625 C 156.917969 138.273438 153.425781 139.324219 150.621094 138.273438 C 149.082031 137.710938 146.496094 135.222656 144.175781 132.074219 C 141.855469 128.921875 140.171875 125.726562 139.953125 123.96875 C 139.804688 122.796875 140.195312 121.574219 141.171875 120.28125 C 141.320312 120.355469 141.488281 120.402344 141.660156 120.429688 C 141.832031 120.476562 141.976562 120.5 142.148438 120.527344 C 142.320312 120.550781 142.492188 120.550781 142.660156 120.574219 C 142.832031 120.574219 143.003906 120.574219 143.175781 120.550781 C 143.34375 120.527344 143.515625 120.5 143.664062 120.453125 C 143.832031 120.402344 143.980469 120.355469 144.152344 120.304688 C 144.296875 120.257812 144.46875 120.183594 144.613281 120.109375 C 144.761719 120.039062 144.90625 119.941406 145.054688 119.84375 C 145.199219 119.746094 145.324219 119.648438 145.445312 119.523438 C 145.566406 119.402344 145.6875 119.304688 145.8125 119.160156 C 145.933594 119.035156 146.03125 118.890625 146.128906 118.769531 C 146.226562 118.621094 146.300781 118.476562 146.398438 118.328125 C 146.46875 118.183594 146.542969 118.035156 146.59375 117.863281 C 146.640625 117.71875 146.691406 117.546875 146.738281 117.375 C 146.789062 117.207031 146.8125 117.058594 146.8125 116.886719 C 146.835938 116.71875 146.835938 116.546875 146.835938 116.375 C 146.835938 116.203125 146.8125 116.035156 146.789062 115.863281 C 146.761719 115.691406 146.738281 115.519531 146.691406 115.375 C 146.640625 115.203125 146.59375 115.058594 146.519531 114.886719 C 146.445312 114.738281 146.371094 114.570312 146.300781 114.421875 C 146.226562 114.277344 146.128906 114.128906 146.03125 114.007812 C 145.933594 113.859375 145.835938 113.738281 145.714844 113.617188 C 145.589844 113.496094 145.46875 113.371094 145.347656 113.273438 C 145.226562 113.175781 145.078125 113.078125 144.933594 112.980469 C 144.785156 112.882812 144.640625 112.8125 144.492188 112.738281 C 144.347656 112.664062 144.175781 112.589844 144.027344 112.542969 C 143.859375 112.492188 143.710938 112.445312 143.539062 112.421875 C 143.371094 112.394531 143.199219 112.371094 143.050781 112.347656 C 142.882812 112.324219 142.710938 112.324219 142.539062 112.347656 C 142.367188 112.347656 142.199219 112.371094 142.027344 112.394531 C 141.855469 112.421875 141.683594 112.46875 141.539062 112.519531 C 141.367188 112.566406 141.222656 112.617188 141.074219 112.6875 C 140.832031 112.785156 140.609375 112.910156 140.390625 113.054688 C 140.171875 113.203125 139.976562 113.371094 139.804688 113.542969 C 139.609375 113.738281 139.464844 113.933594 139.316406 114.128906 C 139.171875 114.324219 139.046875 114.570312 138.949219 114.8125 C 138.851562 115.058594 138.753906 115.300781 138.707031 115.546875 C 138.65625 115.789062 138.609375 116.058594 138.609375 116.300781 C 138.609375 116.570312 138.609375 116.816406 138.65625 117.082031 C 138.707031 117.328125 138.753906 117.597656 138.851562 117.839844 C 136.949219 120.011719 136.191406 122.28125 136.484375 124.480469 Z M 136.484375 124.480469 " fill-opacity="1" fill-rule="nonzero"/></svg>