<svg width="32" height="32" viewBox="0 0 32 32" fill="none" xmlns="http://www.w3.org/2000/svg">
    <g clip-path="url(#clip0_966_73180)">
        <path d="M12.6267 27.9867C12.5234 27.9857 12.4216 27.9611 12.3292 27.9149C12.2368 27.8687 12.1561 27.8021 12.0933 27.72L10.4533 25.4933L7.78668 26.32C7.67134 26.3548 7.54884 26.3583 7.4317 26.3302C7.31456 26.3021 7.207 26.2433 7.12001 26.16C7.03419 26.0746 6.97379 25.9671 6.94554 25.8493C6.91728 25.7316 6.92229 25.6084 6.96001 25.4933L8.70667 19.8533C8.79317 19.4985 8.79317 19.1281 8.70667 18.7733C8.66999 18.6247 8.59728 18.4873 8.49497 18.3734C8.39266 18.2594 8.26389 18.1724 8.12001 18.12L7.37334 17.84C7.09418 17.7419 6.83752 17.5889 6.61853 17.3899C6.39954 17.191 6.22266 16.9501 6.09835 16.6816C5.97405 16.4131 5.90484 16.1224 5.89482 15.8267C5.8848 15.531 5.93417 15.2363 6.04001 14.96L6.33334 14.2133C6.38882 14.0698 6.4057 13.9143 6.38231 13.7622C6.35891 13.6101 6.29606 13.4669 6.20001 13.3467L5.78668 12.6667C5.60406 12.4257 5.47212 12.1503 5.39879 11.857C5.32546 11.5637 5.31227 11.2585 5.36001 10.96C5.40327 10.6734 5.5034 10.3984 5.65453 10.1511C5.80566 9.9038 6.00472 9.68923 6.24001 9.52L6.89334 9.04C7.01944 8.95348 7.12041 8.83512 7.18598 8.69696C7.25155 8.55879 7.27939 8.40574 7.26667 8.25334L7.18668 7.44001C7.16308 7.14532 7.1984 6.84889 7.29058 6.568C7.38276 6.28711 7.52995 6.02738 7.72357 5.80398C7.91719 5.58058 8.15335 5.39797 8.41829 5.2668C8.68322 5.13563 8.97162 5.05853 9.26667 5.04H10.08C10.2319 5.03109 10.3789 4.98354 10.5073 4.90187C10.6356 4.82021 10.741 4.70712 10.8133 4.57334L11.1867 3.85334C11.3276 3.59328 11.5186 3.3637 11.7486 3.17784C11.9787 2.99198 12.2433 2.85353 12.5272 2.77048C12.8111 2.68743 13.1086 2.66141 13.4026 2.69394C13.6965 2.72647 13.9812 2.8169 14.24 2.96001L14.9467 3.36C15.0796 3.43236 15.2286 3.47026 15.38 3.47026C15.5314 3.47026 15.6804 3.43236 15.8133 3.36L16.52 2.96001C16.7781 2.81638 17.062 2.7252 17.3554 2.69171C17.6488 2.65822 17.9459 2.68308 18.2297 2.76487C18.5135 2.84666 18.7783 2.98375 19.0089 3.16827C19.2395 3.35278 19.4313 3.58107 19.5733 3.84001L19.9467 4.56C20.0184 4.69547 20.1232 4.81056 20.2515 4.8945C20.3797 4.97844 20.5272 5.0285 20.68 5.04H21.48C21.7768 5.05854 22.0669 5.13598 22.3335 5.26782C22.6 5.39966 22.8377 5.58325 23.0325 5.80789C23.2274 6.03253 23.3756 6.29372 23.4684 6.57623C23.5613 6.85873 23.5969 7.1569 23.5733 7.45334L23.4933 8.25334C23.4832 8.40597 23.5107 8.55877 23.5735 8.69827C23.6363 8.83777 23.7324 8.95971 23.8533 9.05334L24.52 9.52C24.764 9.69976 24.969 9.92715 25.1225 10.1884C25.2761 10.4497 25.375 10.7394 25.4133 11.04C25.452 11.3268 25.433 11.6184 25.3574 11.8977C25.2819 12.177 25.1513 12.4385 24.9733 12.6667L24.48 13.32C24.384 13.4402 24.3211 13.5835 24.2977 13.7355C24.2743 13.8876 24.2912 14.0432 24.3467 14.1867L24.64 14.9333C24.7497 15.2093 24.8021 15.5047 24.7939 15.8015C24.7857 16.0984 24.7172 16.3905 24.5924 16.6599C24.4676 16.9294 24.2893 17.1707 24.0682 17.369C23.8472 17.5673 23.5881 17.7185 23.3067 17.8133L22.5467 18.0933C22.3333 18.1733 22.1867 18.3067 21.9333 18.88C21.8553 19.0227 21.8184 19.1842 21.8267 19.3467C22.3585 21.4103 22.9994 23.4443 23.7467 25.44C23.7921 25.5552 23.8025 25.6812 23.7764 25.8022C23.7503 25.9232 23.6889 26.0338 23.6 26.12C23.5149 26.2106 23.4057 26.275 23.2853 26.3057C23.1648 26.3364 23.0381 26.3321 22.92 26.2933L20.2533 25.4667L18.6133 27.6933C18.5385 27.7886 18.4396 27.8621 18.3268 27.9063C18.214 27.9505 18.0915 27.9638 17.9718 27.9447C17.8522 27.9257 17.7398 27.8751 17.6463 27.798C17.5528 27.721 17.4816 27.6204 17.44 27.5067L15.8133 22.52C15.463 22.6064 15.097 22.6064 14.7467 22.52L13.2133 27.52C13.1776 27.6366 13.11 27.7408 13.0181 27.8209C12.9262 27.901 12.8137 27.9538 12.6933 27.9733L12.6267 27.9867ZM16.28 20.9867C16.346 20.9737 16.414 20.9737 16.48 20.9867C16.5802 21.0182 16.6713 21.0735 16.7455 21.1478C16.8198 21.2221 16.8751 21.3132 16.9067 21.4133L18.36 25.8533L19.5067 24.2933C19.5924 24.1826 19.7095 24.1004 19.8428 24.0576C19.9761 24.0148 20.1192 24.0133 20.2533 24.0533L22.04 24.6667C21.409 22.988 20.8922 21.2685 20.4933 19.52C20.4575 19.1053 20.5408 18.689 20.7333 18.32C20.8369 17.9971 21.0099 17.7009 21.2403 17.4521C21.4706 17.2033 21.7527 17.008 22.0667 16.88L22.84 16.6C22.9568 16.5642 23.0646 16.5041 23.1566 16.4237C23.2485 16.3433 23.3223 16.2443 23.3733 16.1333C23.4196 16.0283 23.4435 15.9148 23.4435 15.8C23.4435 15.6852 23.4196 15.5717 23.3733 15.4667L23.0667 14.7067C22.9296 14.3481 22.8858 13.9605 22.9394 13.5804C22.993 13.2003 23.1424 12.84 23.3733 12.5333L23.8667 11.88C24.0041 11.6915 24.0659 11.4585 24.04 11.2267C24.0002 10.9984 23.8824 10.791 23.7067 10.64L23.0267 10.16C22.7176 9.93462 22.4719 9.63342 22.3131 9.28545C22.1543 8.93748 22.0878 8.55447 22.12 8.17334L22.1867 7.36C22.1977 7.24435 22.1857 7.12766 22.1513 7.01668C22.117 6.90569 22.061 6.8026 21.9867 6.71335C21.9123 6.6241 21.821 6.55046 21.718 6.49668C21.615 6.4429 21.5024 6.41004 21.3867 6.4H20.5467C20.1651 6.37879 19.7953 6.2597 19.4731 6.0542C19.1508 5.84871 18.8869 5.56372 18.7067 5.22667L18.3333 4.50667C18.2231 4.30219 18.0365 4.14958 17.8142 4.08214C17.5919 4.0147 17.3519 4.0379 17.1467 4.14667L16.4133 4.56C16.0805 4.74325 15.7067 4.83934 15.3267 4.83934C14.9467 4.83934 14.5729 4.74325 14.24 4.56L13.5333 4.16C13.4314 4.10119 13.3185 4.06376 13.2016 4.05001C13.0847 4.03625 12.9662 4.04646 12.8533 4.08001C12.7414 4.10594 12.6367 4.1565 12.5467 4.228C12.4568 4.29949 12.3839 4.39014 12.3333 4.49334L11.9467 5.22667C11.7692 5.56704 11.5063 5.85541 11.1837 6.06345C10.8611 6.2715 10.4899 6.39208 10.1067 6.41334H9.29334C9.06107 6.43046 8.84468 6.5376 8.69026 6.71194C8.53584 6.88629 8.45562 7.11404 8.46667 7.34667V8.18667C8.49891 8.5678 8.43241 8.95082 8.27361 9.29879C8.1148 9.64676 7.86904 9.94795 7.56001 10.1733L6.90668 10.6533C6.81265 10.72 6.73335 10.8053 6.67371 10.9039C6.61407 11.0026 6.57536 11.1124 6.56001 11.2267C6.5209 11.4553 6.5736 11.6901 6.70667 11.88L7.22667 12.5467C7.45765 12.8507 7.60707 13.2088 7.66075 13.5868C7.71442 13.9649 7.67056 14.3503 7.53334 14.7067L7.24001 15.4533C7.15626 15.671 7.16098 15.9129 7.25317 16.1271C7.34535 16.3414 7.51769 16.5111 7.73334 16.6L8.52001 16.88C8.89449 16.9927 9.23242 17.2026 9.49942 17.4883C9.76642 17.774 9.95294 18.1254 10.04 18.5067C10.1797 19.0805 10.1797 19.6795 10.04 20.2533L8.70667 24.6667L10.5867 24.08C10.7187 24.039 10.8602 24.0401 10.9916 24.0831C11.123 24.1261 11.2377 24.2089 11.32 24.32L12.4667 25.8667L13.8 21.3867C13.8322 21.281 13.8907 21.1852 13.97 21.1082C14.0492 21.0313 14.1467 20.9757 14.2533 20.9467C14.3573 20.9126 14.4683 20.9057 14.5757 20.9267C14.683 20.9477 14.7832 20.9959 14.8667 21.0667C15.0229 21.1825 15.2122 21.245 15.4067 21.245C15.6011 21.245 15.7905 21.1825 15.9467 21.0667C16.0489 21.0114 16.1638 20.9838 16.28 20.9867Z" fill="white"></path>
        <path d="M15.3733 18.6533C13.7852 18.6464 12.2638 18.0143 11.1383 16.8938C10.0129 15.7733 9.374 14.2547 9.36 12.6667C9.35207 11.4725 9.69912 10.3028 10.3571 9.30622C11.0151 8.3096 11.9543 7.53094 13.0556 7.06904C14.1569 6.60715 15.3706 6.48286 16.5426 6.71195C17.7147 6.94103 18.7922 7.51316 19.6385 8.35573C20.4849 9.1983 21.0618 10.2733 21.2961 11.4443C21.5304 12.6153 21.4115 13.8296 20.9545 14.9329C20.4975 16.0362 19.723 16.9789 18.7293 17.6413C17.7356 18.3037 16.5676 18.656 15.3733 18.6533ZM10.6933 12.6667C10.6986 13.5943 10.9787 14.4996 11.4982 15.2682C12.0177 16.0368 12.7533 16.6342 13.6121 16.9849C14.4709 17.3357 15.4144 17.424 16.3234 17.2389C17.2324 17.0537 18.0662 16.6033 18.7194 15.9445C19.3725 15.2858 19.8158 14.4482 19.9933 13.5377C20.1707 12.6271 20.0743 11.6844 19.7163 10.8286C19.3582 9.97279 18.7546 9.24228 17.9816 8.72935C17.2086 8.21641 16.301 7.94405 15.3733 7.94667C14.7559 7.94842 14.1448 8.07199 13.5752 8.3103C13.0056 8.54861 12.4886 8.89698 12.0538 9.33545C11.619 9.77392 11.2751 10.2939 11.0416 10.8655C10.8082 11.4371 10.6898 12.0492 10.6933 12.6667Z" fill="white"></path>
        <path fill-rule="evenodd" clip-rule="evenodd" d="M17.2069 10.9368C17.397 11.2592 17.3696 11.7424 17.1457 12.0162L14.8047 14.929C14.6062 15.1718 14.3148 15.1718 14.1162 14.929L12.5209 13.0241C12.297 12.7503 12.2697 12.267 12.4598 11.9447C12.6499 11.6223 12.9855 11.5829 13.2093 11.8567L14.4605 13.3407L16.4573 10.8488C16.6812 10.575 17.0168 10.6144 17.2069 10.9368Z" fill="white"></path>
    </g>
    <defs>
        <clipPath id="clip0_966_73180">
            <rect width="20.1067" height="25.3333" fill="white" transform="translate(5.33331 2.66667)"></rect>
        </clipPath>
    </defs>
</svg>