<svg width="27" height="32" viewBox="0 0 32 32" fill="none" xmlns="http://www.w3.org/2000/svg">
    xmlns="http://www.w3.org/2000/svg"&gt;
    <path d="M25.6372 15.0698H20.6263C18.1333 15.0698 16.9302 13.8543 16.9302 11.3736V6.3628C16.9302 3.86977 18.1457 2.66667 20.6263 2.66667H25.6372C28.1302 2.66667 29.3333 3.88218 29.3333 6.3628V11.3736C29.3333 13.8543 28.1178 15.0698 25.6372 15.0698ZM20.6263 4.52714C19.1627 4.52714 18.7906 4.89923 18.7906 6.3628V11.3736C18.7906 12.8372 19.1627 13.2093 20.6263 13.2093H25.6372C27.1007 13.2093 27.4728 12.8372 27.4728 11.3736V6.3628C27.4728 4.89923 27.1007 4.52714 25.6372 4.52714H20.6263Z" fill="white"></path>
    <path d="M11.3736 15.0698H6.36275C3.86973 15.0698 2.66663 13.9659 2.66663 11.6837V6.05272C2.66663 3.77055 3.88213 2.66667 6.36275 2.66667H11.3736C13.8666 2.66667 15.0697 3.77055 15.0697 6.05272V11.6713C15.0697 13.9659 13.8542 15.0698 11.3736 15.0698ZM6.36275 4.52714C4.70073 4.52714 4.52709 4.99845 4.52709 6.05272V11.6713C4.52709 12.738 4.70073 13.1969 6.36275 13.1969H11.3736C13.0356 13.1969 13.2093 12.7256 13.2093 11.6713V6.05272C13.2093 4.98605 13.0356 4.52714 11.3736 4.52714H6.36275Z" fill="white"></path>
    <path d="M11.3736 29.3333H6.36275C3.86973 29.3333 2.66663 28.1178 2.66663 25.6372V20.6264C2.66663 18.1333 3.88213 16.9302 6.36275 16.9302H11.3736C13.8666 16.9302 15.0697 18.1457 15.0697 20.6264V25.6372C15.0697 28.1178 13.8542 29.3333 11.3736 29.3333ZM6.36275 18.7907C4.89918 18.7907 4.52709 19.1628 4.52709 20.6264V25.6372C4.52709 27.1008 4.89918 27.4729 6.36275 27.4729H11.3736C12.8372 27.4729 13.2093 27.1008 13.2093 25.6372V20.6264C13.2093 19.1628 12.8372 18.7907 11.3736 18.7907H6.36275Z" fill="white"></path>
    <path d="M26.5426 23.7519H19.1008C18.5922 23.7519 18.1705 23.3302 18.1705 22.8217C18.1705 22.3132 18.5922 21.8915 19.1008 21.8915H26.5426C27.0512 21.8915 27.4729 22.3132 27.4729 22.8217C27.4729 23.3302 27.0512 23.7519 26.5426 23.7519Z" fill="white"></path>
    <path d="M22.8217 27.4729C22.3132 27.4729 21.8915 27.0512 21.8915 26.5426V19.1008C21.8915 18.5923 22.3132 18.1705 22.8217 18.1705C23.3302 18.1705 23.7519 18.5923 23.7519 19.1008V26.5426C23.7519 27.0512 23.3302 27.4729 22.8217 27.4729Z" fill="white"></path>
</svg>