<svg width="25" height="35" viewBox="0 0 27 28" fill="none" xmlns="http://www.w3.org/2000/svg">
    <path d="M25.1745 18.6015L25.1745 18.6025C25.1806 21.6022 24.5396 23.6248 23.2588 24.9071C21.9779 26.1894 19.955 26.8333 16.9552 26.8333H10.2575C7.25126 26.8333 5.22853 26.1893 3.94767 24.9071C2.66671 23.6247 2.02571 21.6018 2.02571 18.6015V13.0325C2.02571 12.8001 2.22356 12.6023 2.45594 12.6023C2.68833 12.6023 2.88618 12.8001 2.88618 13.0325V18.6015C2.88618 21.1728 3.3367 23.0638 4.56596 24.2931C5.79521 25.5223 7.68619 25.9728 10.2575 25.9728H16.9428C19.5141 25.9728 21.405 25.5223 22.6343 24.2931C23.8636 23.0638 24.3141 21.1728 24.3141 18.6015V13.0325C24.3141 12.8001 24.5119 12.6023 24.7443 12.6023C24.9767 12.6023 25.1745 12.8001 25.1745 13.0325L25.1745 18.6015Z" fill="white" stroke="white"></path>
    <path d="M11.5598 2.02714H11.1072L11.0623 2.47747L10.3183 9.92944C10.3183 9.92984 10.3182 9.93023 10.3182 9.93063C10.218 10.8926 10.5046 11.8176 11.1278 12.5006C11.7663 13.2062 12.7016 13.5388 13.6063 13.5388C14.5115 13.5388 15.4471 13.2059 16.0857 12.4997L16.0877 12.4975C16.7061 11.8055 16.995 10.883 16.8944 9.93021C16.8943 9.9297 16.8943 9.92918 16.8942 9.92867L16.1504 2.47747L16.1054 2.02714H15.6528H11.5598ZM13.6063 14.4302C12.376 14.4302 11.2736 13.9515 10.4929 13.0828C9.70996 12.2116 9.34213 11.075 9.46507 9.84525C9.46507 9.8452 9.46508 9.84515 9.46508 9.84511L10.2958 1.56242C10.2959 1.5621 10.2959 1.56177 10.2959 1.56144C10.32 1.3374 10.5089 1.16667 10.7288 1.16667H16.5211C16.7463 1.16667 16.9299 1.33025 16.9538 1.56051C16.9539 1.56071 16.9539 1.5609 16.9539 1.5611L17.7848 9.84511C17.7848 9.84515 17.7848 9.8452 17.7848 9.84525C17.9075 11.0732 17.541 12.2083 16.7604 13.079C15.939 13.9538 14.833 14.4302 13.6063 14.4302Z" fill="white" stroke="white"></path>
    <path d="M25.9585 9.43616L25.9585 9.43664C26.0935 10.7643 25.6893 12.0117 24.8327 12.9573C23.9761 13.903 22.773 14.4302 21.4327 14.4302C19.1728 14.4302 17.1415 12.5917 16.9068 10.34C16.9068 10.3397 16.9068 10.3393 16.9067 10.339L16.039 1.64872C16.0389 1.64842 16.0389 1.64811 16.0389 1.6478C16.0278 1.52884 16.0674 1.404 16.1532 1.306C16.2293 1.21897 16.3388 1.16667 16.4714 1.16667H20.2544C22.0156 1.16667 23.2087 1.53588 24.0238 2.26936C24.8408 3.00455 25.3647 4.1831 25.612 5.99676L25.9585 9.43616ZM17.5009 2.02714H16.9483L17.0034 2.57697L17.7724 10.2545L17.7726 10.2564C17.96 12.0581 19.6103 13.5698 21.4327 13.5698C22.5072 13.5698 23.4863 13.1573 24.1936 12.3921L24.1936 12.3922L24.1971 12.3884C24.8951 11.6177 25.2042 10.5949 25.1058 9.52624L25.1058 9.52624L25.1053 9.52145L24.758 6.1106L24.7571 6.10193L24.756 6.0933C24.5609 4.67154 24.2207 3.60707 23.4682 2.92306C22.7099 2.23363 21.6408 2.02714 20.2544 2.02714H17.5009Z" fill="white" stroke="white"></path>
    <path d="M5.71798 14.9302C4.24201 14.9302 2.90247 14.3473 1.94743 13.293C0.992395 12.2388 0.545883 10.8496 0.69472 9.38605L1.0296 5.9752C1.55053 2.19225 3.24976 0.666672 6.89627 0.666672H10.6792C10.9397 0.666672 11.1877 0.7783 11.3738 0.976749C11.5598 1.1752 11.6343 1.43566 11.6094 1.69613L10.7412 10.3907C10.4808 12.8961 8.23581 14.9302 5.71798 14.9302ZM6.89627 2.52714C4.17999 2.52714 3.27456 3.34574 2.87767 6.18605L2.54278 9.5721C2.44356 10.5147 2.72883 11.3954 3.32418 12.0527C3.91953 12.7101 4.76294 13.0698 5.71798 13.0698C7.28077 13.0698 8.73193 11.755 8.88077 10.2047L9.64976 2.52714H6.89627Z" fill="white"></path>
    <path d="M16.7071 27.3333H10.5055C9.99702 27.3333 9.57532 26.9116 9.57532 26.4031V23.3023C9.57532 20.6977 11.0017 19.2713 13.6063 19.2713C16.211 19.2713 17.6373 20.6977 17.6373 23.3023V26.4031C17.6373 26.9116 17.2156 27.3333 16.7071 27.3333ZM11.4358 25.4729H15.7769V23.3023C15.7769 21.7395 15.1691 21.1318 13.6063 21.1318C12.0435 21.1318 11.4358 21.7395 11.4358 23.3023V25.4729Z" fill="white"></path>
</svg>