<svg width="32" height="32" viewBox="0 0 32 32" fill="none" xmlns="http://www.w3.org/2000/svg">
    <g clip-path="url(#clip0_966_73193)">
        <path d="M30.1504 16.7083L28.8029 15.3608L27.3242 10.9071C27.2083 10.5579 26.9852 10.2541 26.6868 10.0389C26.3883 9.82365 26.0296 9.70799 25.6617 9.70833H20.1667V7.95833C20.1667 7.26214 19.8901 6.59446 19.3978 6.10217C18.9055 5.60989 18.2379 5.33333 17.5417 5.33333H5.29166C4.59546 5.33333 3.92778 5.60989 3.4355 6.10217C2.94322 6.59446 2.66666 7.26214 2.66666 7.95833L2.66666 21.0833C2.66666 21.7795 2.94322 22.4472 3.4355 22.9395C3.92778 23.4318 4.59546 23.7083 5.29166 23.7083H6.28916C6.50213 24.5332 7.00861 25.252 7.71366 25.7301C8.41872 26.2082 9.27394 26.4128 10.119 26.3054C10.9641 26.1981 11.741 25.7862 12.3042 25.147C12.8673 24.5078 13.178 23.6852 13.178 22.8333C13.178 21.9815 12.8673 21.1588 12.3042 20.5196C11.741 19.8804 10.9641 19.4686 10.119 19.3612C9.27394 19.2539 8.41872 19.4584 7.71366 19.9366C7.00861 20.4147 6.50213 21.1335 6.28916 21.9583H5.29166C5.05959 21.9583 4.83703 21.8661 4.67294 21.702C4.50884 21.538 4.41666 21.3154 4.41666 21.0833V7.95833C4.41666 7.72626 4.50884 7.5037 4.67294 7.33961C4.83703 7.17552 5.05959 7.08333 5.29166 7.08333H17.5417C17.7737 7.08333 17.9963 7.17552 18.1604 7.33961C18.3245 7.5037 18.4167 7.72626 18.4167 7.95833V21.9583H15.7917C15.5596 21.9583 15.337 22.0505 15.1729 22.2146C15.0088 22.3787 14.9167 22.6013 14.9167 22.8333C14.9167 23.0654 15.0088 23.288 15.1729 23.452C15.337 23.6161 15.5596 23.7083 15.7917 23.7083H21.1642C21.3657 24.4498 21.8055 25.1043 22.4159 25.571C23.0263 26.0376 23.7733 26.2905 24.5417 26.2905C25.31 26.2905 26.057 26.0376 26.6674 25.571C27.2778 25.1043 27.7177 24.4498 27.9192 23.7083H28.9167C29.3808 23.7083 29.8259 23.524 30.1541 23.1958C30.4823 22.8676 30.6667 22.4225 30.6667 21.9583V17.9421C30.6647 17.4787 30.479 17.035 30.1504 16.7083ZM9.66666 21.0833C10.0128 21.0833 10.3511 21.186 10.6389 21.3783C10.9267 21.5706 11.151 21.8439 11.2834 22.1636C11.4159 22.4834 11.4506 22.8353 11.383 23.1747C11.3155 23.5142 11.1488 23.826 10.9041 24.0708C10.6594 24.3155 10.3475 24.4822 10.0081 24.5497C9.6686 24.6172 9.31673 24.5826 8.99696 24.4501C8.67719 24.3177 8.40388 24.0934 8.21159 23.8056C8.01929 23.5178 7.91666 23.1794 7.91666 22.8333C7.91666 22.3692 8.10103 21.9241 8.42922 21.5959C8.75741 21.2677 9.20253 21.0833 9.66666 21.0833ZM26.8254 14.9583H23.6667V11.4583H25.6617L26.8254 14.9583ZM24.5417 24.5833C24.1955 24.5833 23.8572 24.4807 23.5694 24.2884C23.2816 24.0961 23.0573 23.8228 22.9249 23.503C22.7924 23.1833 22.7578 22.8314 22.8253 22.4919C22.8928 22.1525 23.0595 21.8406 23.3042 21.5959C23.549 21.3512 23.8608 21.1845 24.2002 21.117C24.5397 21.0494 24.8916 21.0841 25.2114 21.2165C25.5311 21.349 25.8044 21.5733 25.9967 21.8611C26.189 22.1489 26.2917 22.4872 26.2917 22.8333C26.2917 23.2975 26.1073 23.7426 25.7791 24.0708C25.4509 24.399 25.0058 24.5833 24.5417 24.5833ZM28.9167 21.9583H27.9192C27.7177 21.2169 27.2778 20.5623 26.6674 20.0957C26.057 19.629 25.31 19.3762 24.5417 19.3762C23.7733 19.3762 23.0263 19.629 22.4159 20.0957C21.8055 20.5623 21.3657 21.2169 21.1642 21.9583H20.1667V11.4583H21.9167V15.8333C21.9167 16.0654 22.0088 16.288 22.1729 16.452C22.337 16.6161 22.5596 16.7083 22.7917 16.7083H27.6829L28.9167 17.9421V21.9583Z" fill="white"></path>
    </g>
    <defs>
        <clipPath id="clip0_966_73193">
            <rect width="28" height="21" fill="white" transform="translate(2.66666 5.33333)"></rect>
        </clipPath>
    </defs>
</svg>